<svg xmlns="http://www.w3.org/2000/svg" viewBox="0 0 256 256" role="img" aria-labelledby="title desc">
  <title id="title">WiiiCare Nexus mark</title>
  <desc id="desc">A minimal shield-shaped nexus mark with three Wiii signal pillars and a secure clinical data path.</desc>
  <defs>
    <linearGradient id="frame" x1="47" y1="38" x2="209" y2="218" gradientUnits="userSpaceOnUse">
      <stop stop-color="#23C9C7"/>
      <stop offset="1" stop-color="#7BE2A7"/>
    </linearGradient>
    <linearGradient id="path" x1="67" y1="143" x2="189" y2="143" gradientUnits="userSpaceOnUse">
      <stop stop-color="#28D0C7"/>
      <stop offset=".56" stop-color="#F7F4E9"/>
      <stop offset="1" stop-color="#7BE2A7"/>
    </linearGradient>
  </defs>
  <path fill="#06131B" stroke="url(#frame)" stroke-linejoin="round" stroke-width="10"
        d="M128 28 203 70v64c0 46-29 78-75 99-46-21-75-53-75-99V70l75-42Z"/>
  <g fill="#F7F4E9">
    <circle cx="128" cy="58" r="9"/>
    <rect x="118" y="78" width="20" height="82" rx="10"/>
  </g>
  <g fill="#23C9C7">
    <circle cx="82" cy="86" r="8"/>
    <rect x="72" y="106" width="20" height="58" rx="10"/>
  </g>
  <g fill="#7BE2A7">
    <circle cx="174" cy="86" r="8"/>
    <rect x="164" y="106" width="20" height="58" rx="10"/>
  </g>
  <path fill="none" stroke="url(#path)" stroke-linecap="round" stroke-width="14"
        d="M70 148c25-17 36 24 58 24s33-41 58-24"/>
  <circle cx="128" cy="172" r="13" fill="#F7F4E9" stroke="#06131B" stroke-width="5"/>
</svg>
